{"title":"Asshole.Fever.Sandra.Perfect.Ass.XXX.29.12.2011By.AltriX","uid":7044085,"size":334052045,"categoryP":"porn","categoryS":"movie_clips","magnet":"?xt=urn:btih:d217127c76e52e842eea2a29ead7977d01eda02a&amp;dn=Asshole.Fever.Sandra.Perfect.Ass.XXX.29.12.2011By.AltriX&amp;tr=udp%3A%2F%2Ftracker.openbittorrent.com%3A80&amp;tr=udp%3A%2F%2Fopen.demonii.com%3A1337&amp;tr=udp%3A%2F%2Ftracker.coppersurfer.tk%3A6969&amp;tr=udp%3A%2F%2Fexodus.desync.com%3A6969","seeders":0,"leechers":1,"uploader":"altrixforce84","files":4,"time":1329663647,"description":"Asshole.Fever.Sandra.Perfect.Ass.XXX.29.12.2011\n\n\n___________________________________\n\nFormat                                   : Windows Media\nFile size                                : 159 MiB\nDuration                                 : 26mn 17s\nOverall bit rate mode                    : Constant\nOverall bit rate                         : 846 Kbps\nMaximum Overall bit rate                 : 854 Kbps\nEncoded date                             : UTC 2007-08-17 13:35:49.522\n\nVideo\nID                                       : 2\nFormat                                   : WMV2\nCodec ID                                 : WMV2\nCodec ID/Info                            : Windows Media Video 8\nDescription of the codec                 : Windows Media Video V8\nDuration                                 : 26mn 17s\nBit rate mode                            : Constant\nBit rate                                 : 780 Kbps\nWidth                                    : 448 pixels\nHeight                                   : 336 pixels\nDisplay aspect ratio                     : 4:3\nFrame rate                               : 25.000 fps\nBit depth                                : 8 bits\nBits/(Pixel*Frame)                       : 0.207\nStream size                              : 147 MiB (92%)\nLanguage                                 : English (US)\n\nAudio\nID                                       : 1\nFormat                                   : WMA\nFormat version                           : Version 2\nCodec ID                                 : 161\nCodec ID/Info                            : Windows Media Audio\nDescription of the codec                 : Windows Media Audio 9 -  64 kbps, 44 kHz, stereo 1-pass CBR\nDuration                                 : 26mn 17s\nBit rate mode                            : Constant\nBit rate                                 : 64.0 Kbps\nChannel(s)                               : 2 channels\nSampling rate                            : 44.1 KHz\nBit depth                                : 16 bits\nStream size                              : 12.0 MiB (8%)\nLanguage                                 : English (US)\n\n","torrent":{"xt":"urn:btih:d217127c76e52e842eea2a29ead7977d01eda02a","amp;dn":"Asshole.Fever.Sandra.Perfect.Ass.XXX.29.12.2011By.AltriX","amp;tr":["udp%3A%2F%2Ftracker.openbittorrent.com%3A80","udp%3A%2F%2Fopen.demonii.com%3A1337","udp%3A%2F%2Ftracker.coppersurfer.tk%3A6969","udp%3A%2F%2Fexodus.desync.com%3A6969"],"infoHash":"d217127c76e52e842eea2a29ead7977d01eda02a","infoHashBuffer":{"type":"Buffer","data":[210,23,18,124,118,229,46,132,46,234,42,41,234,215,151,125,1,237,160,42]},"announce":[],"urlList":[]}}